<svg width="25" height="25" viewBox="0 0 25 25" fill="none" xmlns="http://www.w3.org/2000/svg">
<circle cx="12.5" cy="12.5" r="12.5" fill="#E95200"/>
<path fill-rule="evenodd" clip-rule="evenodd" d="M20.5828 6.49389C20.8025 6.71365 20.9259 7.01167 20.9259 7.32241C20.9259 7.63315 20.8025 7.93116 20.5828 8.15092L11.7992 16.9345C11.6832 17.0506 11.5454 17.1427 11.3937 17.2056C11.242 17.2684 11.0794 17.3007 10.9153 17.3007C10.7511 17.3007 10.5885 17.2684 10.4368 17.2056C10.2852 17.1427 10.1473 17.0506 10.0313 16.9345L5.66721 12.5712C5.55528 12.4631 5.46601 12.3338 5.40459 12.1908C5.34317 12.0479 5.31084 11.8941 5.30949 11.7385C5.30814 11.5829 5.33779 11.4286 5.39671 11.2846C5.45564 11.1406 5.54265 11.0097 5.65268 10.8997C5.76271 10.7896 5.89356 10.7026 6.03757 10.6437C6.18159 10.5848 6.33591 10.5551 6.49151 10.5565C6.64711 10.5578 6.80088 10.5902 6.94385 10.6516C7.08683 10.713 7.21614 10.8023 7.32424 10.9142L10.9149 14.5048L18.925 6.49389C19.0339 6.38499 19.1631 6.29861 19.3053 6.23967C19.4475 6.18073 19.6 6.15039 19.7539 6.15039C19.9079 6.15039 20.0603 6.18073 20.2026 6.23967C20.3448 6.29861 20.474 6.38499 20.5828 6.49389Z" fill="white"/>
</svg>
