<svg width="45" height="45" viewBox="0 0 45 45" fill="none" xmlns="http://www.w3.org/2000/svg">
<circle cx="22.5" cy="22.5" r="22.5" fill="#E95200"/>
<path d="M30.5 24.248H24.25V30.498C24.25 30.8296 24.1183 31.1475 23.8839 31.3819C23.6495 31.6164 23.3315 31.748 23 31.748C22.6685 31.748 22.3505 31.6164 22.1161 31.3819C21.8817 31.1475 21.75 30.8296 21.75 30.498V24.248H15.5C15.1685 24.248 14.8505 24.1164 14.6161 23.8819C14.3817 23.6475 14.25 23.3296 14.25 22.998C14.25 22.6665 14.3817 22.3486 14.6161 22.1142C14.8505 21.8797 15.1685 21.748 15.5 21.748H21.75V15.498C21.75 15.1665 21.8817 14.8486 22.1161 14.6142C22.3505 14.3797 22.6685 14.248 23 14.248C23.3315 14.248 23.6495 14.3797 23.8839 14.6142C24.1183 14.8486 24.25 15.1665 24.25 15.498V21.748H30.5C30.8315 21.748 31.1495 21.8797 31.3839 22.1142C31.6183 22.3486 31.75 22.6665 31.75 22.998C31.75 23.3296 31.6183 23.6475 31.3839 23.8819C31.1495 24.1164 30.8315 24.248 30.5 24.248Z" fill="white"/>
</svg>
