<svg width="110" height="90" viewBox="0 0 110 90" fill="none" xmlns="http://www.w3.org/2000/svg">
<g clip-path="url(#clip0_280_901)">
<path d="M35.1118 58.3414C34.5381 57.8243 33.8645 57.344 33.3905 56.7776C30.2473 53.4529 29.1123 49.3895 28.5635 44.9442C28.1344 40.9735 28.294 36.9622 29.0374 33.037C29.186 32.1302 29.1133 31.2015 28.8254 30.328C26.085 22.2961 24.408 13.948 23.8362 5.49152C23.7677 4.22024 23.8304 2.94538 24.0233 1.68662C24.0369 1.40862 24.1139 1.13725 24.2487 0.892793C24.3835 0.648331 24.5725 0.437099 24.8016 0.274879C25.0306 0.11266 25.2939 0.00364812 25.5717 -0.0440096C25.8494 -0.0916673 26.1345 -0.0767389 26.4056 -0.000339806C27.6808 0.184395 28.9343 0.493754 30.1475 0.923179C35.1618 2.63699 39.8499 5.16753 44.0176 8.40984C44.2421 8.59454 44.504 8.75462 44.7785 8.95164C51.1998 4.96049 58.6858 2.96172 66.2695 3.21351C73.493 3.05532 80.6268 4.81597 86.9249 8.31133C87.7357 8.77925 88.1723 8.42215 88.7834 8.08969C93.467 5.36236 98.5015 3.27074 103.751 1.87133C104.237 1.75618 104.728 1.66576 105.223 1.60043C108.429 1.10788 109.564 1.98215 109.85 5.2945C110.186 10.3109 109.765 15.3486 108.603 20.2432C107.755 24.085 106.595 27.853 105.522 31.6456C105.389 31.9178 105.32 32.2162 105.319 32.5186C105.319 32.821 105.388 33.1195 105.522 33.3918C105.655 33.6641 105.848 33.9032 106.088 34.0913C106.328 34.2793 106.608 34.4114 106.907 34.4777C107.772 34.8231 108.513 35.4153 109.035 36.1787C109.557 36.942 109.837 37.8418 109.838 38.7628C110.125 41.5703 110.312 44.4148 107.967 46.6435C107.927 46.6761 107.897 46.7186 107.88 46.7667C107.131 50.2021 104.986 52.7511 102.89 55.4601C100.337 58.8162 97.0502 61.5605 93.2737 63.4885L95.4191 64.9661C96.3749 63.9361 97.4181 62.9886 98.5374 62.134C100.325 61.0052 102.212 60.0368 104.175 59.2403C104.861 58.9722 105.619 58.9485 106.321 59.1733C107.022 59.398 107.622 59.8572 108.017 60.4717C108.456 61.0262 108.689 61.7123 108.677 62.4158C108.666 63.1193 108.411 63.7977 107.955 64.3382C106.62 66.1113 105.073 67.7121 103.664 69.4237C103.364 69.7808 102.978 70.3964 103.103 70.655C105.061 75.1248 104.038 78.7943 100.246 82.1067H106.483C107.382 82.0941 108.282 82.1311 109.177 82.2175C109.426 82.2175 109.626 82.6238 109.863 82.8455C109.613 83.0425 109.401 83.3503 109.127 83.4119C108.68 83.4677 108.227 83.4677 107.78 83.4119C96.5542 83.3011 85.2411 83.1779 73.9654 83.104C72.9767 83.1258 72.002 83.3392 71.0966 83.732C66.4941 85.616 61.9289 87.5985 57.3762 89.4948C56.5847 89.8163 55.7376 89.9835 54.8816 89.9874C40.9617 89.9874 27.0417 89.8273 13.1343 89.7903C11.6749 89.7903 11.0637 89.384 11.0637 87.894C11.0226 87.0129 10.8109 86.1477 10.4401 85.3451C7.15967 77.4152 3.86678 69.4975 0.586364 61.5676C0.461633 61.2474 0.28701 60.9396 0.187225 60.6071C-0.274278 59.1049 0.0749679 58.6246 1.65905 58.6246L33.2409 58.7355H34.9247L35.1118 58.3414ZM99.4604 57.4549C96.7288 57.775 94.0845 58.1444 91.4277 58.3537C90.4673 58.4276 89.9434 58.5877 89.5817 59.5851C89.0204 61.1366 87.1994 61.8139 85.0166 61.5307C84.2594 61.5074 83.5329 61.23 82.9569 60.7442C82.3809 60.2584 81.9899 59.5933 81.8484 58.8586C81.5883 58.0243 81.6525 57.1243 82.0285 56.3343C82.4044 55.5442 83.0651 54.9208 83.8815 54.5858C84.8693 54.164 85.9731 54.0866 87.0113 54.3663C88.0495 54.646 88.9604 55.2663 89.5942 56.125C89.7294 56.3457 89.9104 56.5355 90.1255 56.682C90.3405 56.8284 90.5845 56.9282 90.8415 56.9746C93.1743 56.872 95.4942 56.5754 97.7765 56.088C99.6802 55.5928 101.353 54.4655 102.514 52.8957C103.675 51.3259 104.253 49.4094 104.15 47.4685C100.907 46.5081 100.408 43.873 100.408 41.0408C100.408 38.2087 100.733 35.352 104.45 34.1083C103.576 32.0027 102.691 29.9956 101.955 27.9515C101.85 27.433 101.82 26.9022 101.868 26.3754C102.33 26.6066 102.751 26.9102 103.115 27.2743C103.676 28.0993 104.075 29.0228 104.761 30.3034C105.547 27.4097 106.308 25.0209 106.832 22.5705C108.079 16.8816 109.239 11.1804 108.553 5.33144C108.254 2.86873 107.73 2.47469 105.235 2.86873C99.7098 3.85381 94.7955 6.3781 89.906 8.93932C89.6461 9.12236 89.4001 9.32403 89.1701 9.54269C90.4174 10.5155 91.6647 11.3651 92.7873 12.3256C93.2737 12.7565 93.9598 13.8155 93.86 13.914C92.9993 14.776 92.4505 13.7909 91.9142 13.3599C87.192 9.44293 81.5471 6.76241 75.4996 5.5654C68.4369 4.15948 61.1424 4.36162 54.1707 6.15645C49.3024 7.53098 44.8629 10.0929 41.261 13.6062C40.9617 13.8771 40.338 13.8155 39.8641 13.914C40.0262 13.4707 40.0636 12.892 40.363 12.5965C41.4232 11.5867 42.5832 10.6755 43.8305 9.61657C38.84 5.75235 33.0945 2.94779 26.9544 1.37878C25.8693 1.13251 25.1957 1.47729 25.0959 2.61014C25.0072 3.10638 24.9572 3.6086 24.9463 4.1124C25.3307 12.2373 26.8458 20.2714 29.449 27.9884C29.5844 28.319 29.7428 28.6399 29.923 28.9489C30.169 28.0592 30.4647 27.1836 30.8086 26.3261C31.0955 25.7351 31.769 24.713 31.9312 24.7746C33.1785 25.2179 32.2929 26.0922 32.0933 26.7201C30.0726 32.5068 29.3366 38.655 29.9355 44.7472C30.4843 49.1678 31.6693 53.2436 34.9247 56.4575C36.4589 57.9474 38.0804 59.1664 40.4378 58.7724C41.031 58.7171 41.6282 58.7171 42.2215 58.7724C45.0404 58.7724 45.1027 58.7724 46.0632 61.3459C46.191 61.8679 46.481 62.3372 46.8926 62.6883C47.3041 63.0394 47.8166 63.2546 48.3582 63.3038C50.7655 63.6116 53.1853 63.9441 55.5801 64.3382C56.2192 64.5106 56.8349 64.7586 57.4137 65.077C56.7984 65.3403 56.1536 65.5304 55.4928 65.6434C54.5451 65.68 53.5961 65.6181 52.6614 65.4587C51.0025 65.2247 49.3561 64.9169 47.535 64.609C47.7221 65.1385 47.8343 65.5449 47.9965 65.9389C49.5307 69.633 51.1023 73.4009 52.5866 77.1566C52.6906 77.5795 52.9495 77.9494 53.3134 78.195C53.6773 78.4405 54.1204 78.5444 54.5573 78.4865C59.5466 78.4865 64.5358 78.4865 69.525 78.4865C72.8304 78.4865 72.8304 78.4865 73.3542 81.7249H90.4424C90.355 81.5895 90.3176 81.4417 90.2178 81.3678C85.9895 77.8462 85.2286 74.5707 87.4987 69.6207C87.63 69.3688 87.7024 69.0911 87.7108 68.808C87.6484 67.5766 87.5486 66.4191 87.4488 65.1139C86.8751 65.2124 86.2015 65.3725 85.4407 65.4587C82.8712 65.7542 80.2893 66.0497 77.7198 66.2714C77.3456 66.2714 76.934 65.9143 76.4725 65.7173C76.8058 65.431 77.1798 65.1945 77.5826 65.0154C78.2215 64.908 78.8679 64.8504 79.5159 64.843C83.9024 64.5979 88.2257 63.6969 92.3383 62.171C95.0207 61.1088 97.4472 59.502 99.4604 57.4549ZM1.60916 59.9915C1.65656 60.2931 1.7317 60.5898 1.83367 60.878C5.10161 68.808 8.39451 76.7256 11.6375 84.6679C12.0117 85.5791 12.6104 85.616 13.3962 85.6283L53.1853 86.2194H54.8816C54.6197 85.5052 54.4576 84.988 54.2455 84.5078C51.1148 76.898 48.009 69.3005 44.8658 61.6661C44.7417 61.1784 44.441 60.7525 44.0204 60.4689C43.5998 60.1852 43.0885 60.0636 42.5832 60.1269C29.5114 60.1269 16.3897 60.053 3.38033 59.9915H1.60916ZM89.9809 70.7412L89.3572 70.6304C88.9456 71.0367 88.3219 71.3692 88.1099 71.8617C87.8019 72.7842 87.6811 73.7576 87.7546 74.7262C87.8281 75.6948 88.0943 76.6396 88.538 77.5065C88.9817 78.3735 89.5942 79.1455 90.3405 79.7785C91.0867 80.4115 91.9521 80.893 92.8871 81.1954C93.7962 81.5421 94.7668 81.7039 95.7408 81.671C96.7148 81.6382 97.672 81.4114 98.555 81.0043C99.438 80.5972 100.229 80.0181 100.879 79.3019C101.53 78.5857 102.027 77.7471 102.342 76.8364C102.723 75.8907 102.848 74.8635 102.706 73.8554C102.564 72.8473 102.159 71.893 101.531 71.086C100.695 70.064 101.069 69.8546 101.768 69.1774C103.427 67.5766 105.048 65.902 106.558 64.1658C106.98 63.8012 107.251 63.2948 107.318 62.7444C107.385 62.1941 107.243 61.6388 106.919 61.1859C106.552 60.7352 106.036 60.4265 105.461 60.3139C104.886 60.2013 104.29 60.2921 103.776 60.5702C102.374 61.1517 101.037 61.8737 99.7847 62.7251C98.8283 63.4321 97.9353 64.2189 97.1154 65.077C95.469 66.6285 95.4815 66.6408 93.6479 65.4094C93.107 64.922 92.4073 64.6417 91.6753 64.6191C90.9433 64.5966 90.2273 64.8332 89.6565 65.2863C88.4092 66.3822 88.7086 67.6382 89.2948 68.9804C89.5193 69.5222 89.8062 70.1871 89.9809 70.7412ZM56.4158 86.1948L69.8493 80.3212L69.7371 80.038H53.8838L56.4158 86.1948ZM12.573 87.106C12.1988 88.7437 13.2839 88.4728 14.0698 88.4851L53.8339 88.6575C54.0317 88.6948 54.2348 88.6948 54.4326 88.6575C54.6894 88.5075 54.9316 88.3344 55.156 88.1403C54.9659 87.9552 54.747 87.8013 54.5074 87.6847C54.2135 87.6473 53.9158 87.6473 53.6219 87.6847L13.9949 87.0937L12.573 87.106ZM71.8699 81.7865L71.5581 81.2078L56.5904 87.6847L56.8524 88.2634C61.8416 85.9977 66.968 84.1138 71.8699 81.7249V81.7865Z" fill="black"/>
<path d="M99.4604 57.455C97.4908 59.5147 95.1075 61.1461 92.4631 62.245C88.3505 63.771 84.0272 64.672 79.6407 64.9171C78.9927 64.9245 78.3463 64.9821 77.7074 65.0895C77.3046 65.2686 76.9306 65.505 76.5973 65.7913C76.9964 65.9884 77.4081 66.3701 77.8446 66.3455C80.4141 66.1238 82.996 65.8283 85.5654 65.5328C86.2889 65.4466 86.9998 65.2865 87.5736 65.188C87.6734 66.4932 87.7732 67.6507 87.8355 68.882C87.8272 69.1652 87.7548 69.4429 87.6235 69.6947C85.3659 74.6202 86.1143 77.9202 90.3426 81.4419C90.4424 81.5158 90.4798 81.6636 90.5671 81.799H73.4167C72.8928 78.5852 72.8928 78.5852 69.5874 78.5605C64.5982 78.5605 59.609 78.4743 54.6198 78.5605C54.1829 78.6185 53.7397 78.5146 53.3758 78.2691C53.0119 78.0235 52.753 77.6536 52.649 77.2307C51.1647 73.475 49.5931 69.7563 48.0589 66.013C47.8968 65.6189 47.7845 65.2126 47.5974 64.6831C49.4185 64.991 51.0649 65.2988 52.7239 65.5328C53.6585 65.6922 54.6075 65.7541 55.5552 65.7175C56.216 65.6045 56.8608 65.4144 57.4761 65.151C56.8973 64.8327 56.2817 64.5846 55.6425 64.4122C53.2477 64.0182 50.8279 63.6857 48.4206 63.3779C47.8751 63.3199 47.362 63.0935 46.9544 62.731C46.5468 62.3684 46.2655 61.8881 46.1505 61.3585C45.1901 58.7849 45.1277 58.8095 42.3088 58.7849C41.7156 58.7296 41.1184 58.7296 40.5252 58.7849C38.1678 59.1789 36.5463 57.9599 35.0121 56.47C31.7067 53.2561 30.5218 49.1803 30.0229 44.7597C29.4102 38.6661 30.1334 32.5136 32.1433 26.7203C32.3429 26.0923 33.1785 25.2181 31.9811 24.7748C31.819 24.7132 31.1454 25.7352 30.8586 26.3263C30.5019 27.183 30.1938 28.0586 29.9356 28.9491C29.7553 28.6401 29.597 28.3192 29.4616 27.9886C26.8541 20.2721 25.3348 12.2381 24.9463 4.11259C24.9426 3.62238 24.976 3.13258 25.0461 2.64727C25.1459 1.47748 25.8194 1.1327 26.9046 1.41591C33.0632 2.98229 38.8263 5.79136 43.8306 9.66601C42.5832 10.725 41.4233 11.6362 40.363 12.6459C40.0637 12.9414 40.0263 13.5202 39.8641 13.9635C40.3381 13.8649 40.9617 13.9635 41.2611 13.6556C44.8574 10.1245 49.2974 7.54533 54.1707 6.15664C61.1387 4.3455 68.4331 4.12651 75.4997 5.51634C81.5375 6.72998 87.1692 9.42304 91.8768 13.3478C92.4132 13.7788 92.962 14.7638 93.8226 13.9019C93.9224 13.8034 93.2364 12.7444 92.7499 12.3134C91.6398 11.353 90.4175 10.5033 89.1327 9.53056C89.3627 9.3119 89.6087 9.11023 89.8687 8.9272C94.7955 6.41523 99.6725 3.89094 105.198 2.90586C107.693 2.46257 108.217 2.83197 108.516 5.36857C109.202 11.2422 108.004 16.9433 106.795 22.6076C106.271 25.0703 105.547 27.4468 104.724 30.3405C104.038 29.1092 103.639 28.1364 103.078 27.3114C102.714 26.9473 102.292 26.6437 101.83 26.4125C101.783 26.9393 101.812 27.4701 101.918 27.9886C102.716 30.0327 103.602 32.0398 104.412 34.1454C100.67 35.3768 100.346 38.172 100.371 41.078C100.396 43.984 100.907 46.5452 104.113 47.5057C104.215 49.4466 103.637 51.3631 102.477 52.9328C101.316 54.5026 99.6429 55.6299 97.7392 56.1252C95.4568 56.6126 93.1369 56.9091 90.8041 57.0118C90.5472 56.9653 90.3031 56.8656 90.0881 56.7191C89.8731 56.5727 89.692 56.3828 89.5568 56.1621C88.9231 55.3034 88.0122 54.6832 86.9739 54.4034C85.9357 54.1237 84.8319 54.2011 83.8442 54.6229C83.0277 54.958 82.367 55.5814 81.9911 56.3714C81.6152 57.1615 81.551 58.0615 81.811 58.8957C81.9539 59.6365 82.3504 60.3062 82.934 60.7927C83.5177 61.2792 84.2529 61.5529 85.0166 61.5678C87.1994 61.851 89.0205 61.1737 89.5818 59.6222C89.9435 58.6371 90.4674 58.4771 91.4278 58.3909C94.0846 58.1446 96.7288 57.7752 99.4604 57.455ZM61.6421 48.343C59.2348 46.7915 59.2348 46.7915 58.4739 47.2717C59.2788 47.7911 59.9472 48.4917 60.4242 49.3159C60.9013 50.14 61.1733 51.0642 61.218 52.0124C61.2583 52.9823 61.6469 53.9063 62.3142 54.6192C62.9815 55.3322 63.884 55.7874 64.8601 55.9035C66.6563 55.9035 68.0657 54.5121 68.4399 52.0001C68.6894 50.3624 68.7517 48.774 70.5354 47.9366C70.6975 47.8504 70.6726 47.3702 70.7474 47.0747C70.4388 47.0314 70.1244 47.0523 69.8244 47.1363C69.3006 47.4195 68.864 47.8504 68.3401 48.1337C68.0208 48.3311 67.6389 48.4056 67.2675 48.343C65.172 47.6657 64.673 46.2374 65.8829 44.4888C66.2521 44.0785 66.4433 43.5414 66.4153 42.9933C66.3873 42.4452 66.1424 41.9298 65.7333 41.5582C65.3247 41.2316 64.8015 41.0786 64.2787 41.1329C63.7559 41.1872 63.2763 41.4443 62.9455 41.8476C62.6147 42.2509 62.4598 42.7674 62.5147 43.2835C62.5697 43.7997 62.8301 44.2731 63.2387 44.5997C64.224 45.4616 64.0743 46.1512 63.2387 46.9023C62.7148 47.3579 62.2034 47.8258 61.6421 48.343ZM47.6348 40.7455C47.6544 41.7124 48.0573 42.6331 48.7569 43.31C49.4566 43.9869 50.3972 44.3659 51.3768 44.3657C52.3692 44.3657 53.321 43.9765 54.0227 43.2837C54.7244 42.591 55.1187 41.6514 55.1187 40.6716C55.1189 40.1781 55.0189 39.6896 54.8246 39.2348C54.6304 38.7801 54.3458 38.3684 53.9877 38.0241C53.6295 37.6797 53.2052 37.4097 52.7396 37.23C52.274 37.0502 51.7767 36.9644 51.277 36.9776C50.7836 36.977 50.2953 37.0754 49.8416 37.2668C49.388 37.4581 48.9784 37.7385 48.6378 38.0909C48.2972 38.4432 48.0327 38.8602 47.8603 39.3165C47.6879 39.7729 47.6112 40.259 47.6348 40.7455ZM81.5616 40.4377C81.5836 39.9635 81.5072 39.4899 81.3372 39.0459C81.1671 38.6019 80.907 38.1968 80.5727 37.8556C80.2384 37.5144 79.8371 37.2442 79.3932 37.0616C78.9494 36.8791 78.4725 36.7879 77.9917 36.7938C77.5109 36.7997 77.0364 36.9025 76.5973 37.0958C76.1582 37.2892 75.7637 37.5692 75.4381 37.9184C75.1125 38.2677 74.8626 38.679 74.7037 39.127C74.5449 39.575 74.4804 40.0504 74.5143 40.5239C74.5778 41.4108 74.9823 42.2402 75.645 42.8424C76.3077 43.4445 77.1785 43.7738 78.0791 43.7627C78.9797 43.7517 79.842 43.4013 80.4894 42.7831C81.1368 42.165 81.5204 41.3259 81.5616 40.4377ZM67.8412 57.2088C66.8225 57.6979 65.7324 58.0261 64.6107 58.1815C63.4771 57.9707 62.3833 57.5886 61.3677 57.0487C61.7009 57.6559 62.2136 58.1486 62.8376 58.4609C63.4615 58.7733 64.167 58.8906 64.8601 58.7972C65.4527 58.8582 66.05 58.7387 66.5717 58.4547C67.0935 58.1708 67.5147 57.736 67.7788 57.2088H67.8412Z" fill="white"/>
<path d="M1.60913 59.9912H3.31794C16.3897 60.0528 29.5114 60.1267 42.5208 60.1267C43.0261 60.0633 43.5374 60.185 43.958 60.4686C44.3786 60.7522 44.6793 61.1782 44.8034 61.6659C47.8842 69.3003 51.0399 76.8978 54.1831 84.5076C54.3952 85.0001 54.5573 85.505 54.8192 86.2191H53.1853L13.3962 85.6281C12.6104 85.6281 12.0117 85.6281 11.6375 84.6676C8.39448 76.7254 5.10159 68.8077 1.83365 60.8778C1.73168 60.5896 1.65653 60.2929 1.60913 59.9912Z" fill="white"/>
<path d="M89.9809 70.741C89.7439 70.1376 89.5194 69.5096 89.2575 68.9309C88.6713 67.6995 88.3844 66.382 89.6192 65.2368C90.1899 64.7837 90.906 64.5471 91.638 64.5697C92.37 64.5923 93.0697 64.8726 93.6106 65.36C95.4441 66.5913 95.4317 66.5913 97.0781 65.0275C97.9119 64.1849 98.8174 63.4145 99.7848 62.7249C101.053 61.8706 102.407 61.1484 103.826 60.57C104.34 60.2919 104.936 60.2011 105.511 60.3137C106.086 60.4263 106.602 60.735 106.969 61.1857C107.293 61.6386 107.435 62.1939 107.368 62.7442C107.301 63.2946 107.03 63.8009 106.608 64.1655C105.098 65.9018 103.477 67.5764 101.818 69.1772C101.119 69.8544 100.745 70.0638 101.581 71.0858C102.209 71.8928 102.614 72.8471 102.756 73.8552C102.898 74.8633 102.773 75.8905 102.392 76.8362C102.077 77.7469 101.58 78.5855 100.929 79.3017C100.279 80.0179 99.488 80.597 98.605 81.0041C97.722 81.4112 96.7647 81.638 95.7908 81.6708C94.8168 81.7037 93.8461 81.5419 92.9371 81.1952C92.0021 80.8928 91.1367 80.4113 90.3904 79.7783C89.6442 79.1453 89.0317 78.3733 88.5879 77.5063C88.1442 76.6394 87.878 75.6946 87.8046 74.726C87.7311 73.7574 87.8519 72.784 88.1599 71.8615C88.3594 71.369 88.9831 71.0365 89.4072 70.6302L89.9809 70.741ZM98.0011 70.4332C97.7392 70.1007 97.6643 69.9283 97.5521 69.8914C96.5703 69.7483 95.5702 69.9809 94.7564 70.5417C93.9426 71.1025 93.3765 71.949 93.174 72.9082C93.1314 73.4602 92.9326 73.9892 92.6003 74.4351C92.114 74.907 91.7935 75.5202 91.6858 76.185C91.5781 76.8497 91.6887 77.531 92.0016 78.1292C92.2623 78.8017 92.7418 79.3697 93.3648 79.7441C93.9879 80.1185 94.7193 80.2781 95.4441 80.1978C95.9932 80.02 96.5047 79.7446 96.9534 79.3851C96.4841 79.1436 95.9788 78.9774 95.4566 78.8926C94.955 78.9359 94.4534 78.8095 94.0341 78.5343C93.6148 78.2591 93.3028 77.8514 93.1491 77.378C92.75 76.3191 93.2738 75.6418 94.122 75.0138C94.4837 74.7552 94.9078 74.0657 94.7955 73.7825C94.1968 72.4033 95.0824 71.8862 96.0428 71.3813C96.654 71.0365 97.2902 70.7656 98.0011 70.4332Z" fill="white"/>
<path d="M56.4158 86.1949L53.9211 80.0381H69.737L69.8742 80.3705L56.4158 86.1949Z" fill="white"/>
<path d="M12.573 87.0439H13.9949L53.6343 87.635C53.9283 87.5976 54.2259 87.5976 54.5199 87.635C54.7594 87.7516 54.9784 87.9054 55.1685 88.0906C54.944 88.2846 54.7018 88.4578 54.4451 88.6078C54.2473 88.645 54.0441 88.645 53.8463 88.6078L14.0822 88.3738C13.2839 88.4107 12.1988 88.657 12.573 87.0439Z" fill="white"/>
<path d="M71.87 81.7252C66.9681 84.1141 61.8915 85.998 56.9023 88.2022L56.6404 87.6234L71.6081 81.1465L71.87 81.7252Z" fill="white"/>
<path d="M61.6421 48.3429C62.2033 47.8257 62.7147 47.3578 63.2386 46.9022C64.1117 46.1511 64.2614 45.4615 63.2386 44.5996C62.8301 44.273 62.5697 43.7996 62.5147 43.2834C62.4597 42.7673 62.6147 42.2508 62.9455 41.8475C63.2763 41.4441 63.7559 41.1871 64.2787 41.1328C64.8015 41.0785 65.3247 41.2315 65.7332 41.5581C66.1424 41.9297 66.3873 42.4451 66.4153 42.9932C66.4433 43.5413 66.2521 44.0784 65.8829 44.4887C64.6356 46.2373 65.1719 47.6656 67.2674 48.3429C67.6389 48.4055 68.0207 48.331 68.3401 48.1335C68.864 47.8503 69.3005 47.4194 69.8244 47.1361C70.1243 47.0522 70.4388 47.0313 70.7474 47.0746C70.6726 47.3701 70.7474 47.8503 70.5354 47.9365C68.7517 48.7739 68.6893 50.3992 68.4399 52C68.0657 54.4627 66.6562 55.9157 64.8601 55.9034C63.8817 55.79 62.9762 55.3359 62.3064 54.6228C61.6366 53.9096 61.2463 52.9841 61.2055 52.0123C61.1608 51.0641 60.8888 50.1399 60.4117 49.3158C59.9347 48.4916 59.2662 47.791 58.4614 47.2716C59.2348 46.7914 59.2348 46.7914 61.6421 48.3429ZM64.2988 47.7518C61.8042 49.5496 61.4799 50.5347 62.615 52.862C63.4132 54.512 64.5608 55.1277 65.7457 54.5489C66.9306 53.9702 68.0407 50.8548 67.5418 49.9929C67.4519 49.8816 67.3365 49.793 67.2051 49.7343L64.2988 47.7518Z" fill="black"/>
<path d="M47.6347 40.7452C47.6214 40.2689 47.7042 39.7948 47.8781 39.3503C48.0521 38.9059 48.3138 38.5 48.648 38.1563C48.9823 37.8126 49.3824 37.5379 49.8251 37.3482C50.2678 37.1584 50.7443 37.0575 51.2269 37.0511C51.7267 37.038 52.224 37.1238 52.6896 37.3035C53.1551 37.4833 53.5795 37.7533 53.9376 38.0976C54.2957 38.442 54.5803 38.8537 54.7746 39.3084C54.9688 39.7631 55.0688 40.2517 55.0686 40.7452C55.0686 41.7249 54.6744 42.6645 53.9726 43.3573C53.2709 44.0501 52.3191 44.4393 51.3267 44.4393C50.343 44.4263 49.404 44.0314 48.713 43.34C48.022 42.6487 47.6346 41.7164 47.6347 40.7452Z" fill="black"/>
<path d="M81.5614 40.4371C81.5202 41.3253 81.1367 42.1644 80.4893 42.7826C79.8419 43.4007 78.9796 43.7512 78.079 43.7622C77.1784 43.7732 76.3076 43.4439 75.6449 42.8418C74.9821 42.2397 74.5776 41.4103 74.5141 40.5233C74.4803 40.0498 74.5447 39.5745 74.7036 39.1265C74.8624 38.6784 75.1123 38.2672 75.4379 37.9179C75.7635 37.5686 76.158 37.2887 76.5971 37.0953C77.0362 36.9019 77.5107 36.7991 77.9915 36.7932C78.4723 36.7874 78.9492 36.8785 79.3931 37.0611C79.8369 37.2437 80.2383 37.5139 80.5725 37.8551C80.9068 38.1963 81.167 38.6013 81.337 39.0453C81.5071 39.4893 81.5834 39.9629 81.5614 40.4371Z" fill="black"/>
<path d="M67.7789 57.2089C67.5147 57.7361 67.0935 58.1709 66.5718 58.4548C66.05 58.7388 65.4527 58.8583 64.8602 58.7974C64.1631 58.896 63.4522 58.7813 62.8232 58.4687C62.1942 58.156 61.6775 57.6604 61.3428 57.0488C62.3584 57.5887 63.4522 57.9708 64.5858 58.1817C65.6947 58.0225 66.7719 57.6943 67.7789 57.2089Z" fill="black"/>
<path d="M98.0009 70.4332C97.2899 70.7657 96.6538 71.0366 96.0426 71.369C95.0822 71.8739 94.1966 72.3911 94.7953 73.7702C94.9076 74.0411 94.4835 74.7306 94.1218 75.0015C93.2736 75.6295 92.7498 76.3068 93.1489 77.3658C93.3026 77.8391 93.6146 78.2468 94.0339 78.522C94.4532 78.7972 94.9548 78.9236 95.4564 78.8803C95.9786 78.9651 96.4839 79.1314 96.9532 79.3729C96.5045 79.7323 95.993 80.0078 95.4439 80.1856C94.7191 80.2659 93.9877 80.1063 93.3646 79.7319C92.7416 79.3575 92.2621 78.7894 92.0014 78.1169C91.6885 77.5187 91.5779 76.8374 91.6856 76.1727C91.7933 75.508 92.1138 74.8947 92.6001 74.4228C92.9324 73.9769 93.1312 73.4479 93.1738 72.8959C93.3763 71.9368 93.9424 71.0902 94.7562 70.5294C95.57 69.9687 96.5701 69.736 97.5519 69.8791C97.6641 69.9283 97.739 70.1007 98.0009 70.4332Z" fill="black"/>
<path d="M64.2987 47.752L67.2049 49.7344C67.3363 49.7931 67.4518 49.8817 67.5417 49.993C68.0406 50.8796 66.7933 54.0319 65.7456 54.5491C64.6978 55.0662 63.4131 54.5491 62.6148 52.8621C61.4798 50.4856 61.8041 49.5497 64.2987 47.752Z" fill="white"/>
</g>
<defs>
<clipPath id="clip0_280_901">
<rect width="110" height="90" fill="white"/>
</clipPath>
</defs>
</svg>
