<svg width="15" height="15" viewBox="0 0 15 15" fill="none" xmlns="http://www.w3.org/2000/svg">
<g clip-path="url(#clip0_280_2145)">
<g clip-path="url(#clip1_280_2145)">
<g clip-path="url(#clip2_280_2145)">
<g clip-path="url(#clip3_280_2145)">
<g clip-path="url(#clip4_280_2145)">
<g clip-path="url(#clip5_280_2145)">
<g clip-path="url(#clip6_280_2145)">
<g clip-path="url(#clip7_280_2145)">
<g clip-path="url(#clip8_280_2145)">
<path d="M12.2522 4.83438L7.86 9.15719C7.76417 9.252 7.63481 9.30518 7.5 9.30518C7.3652 9.30518 7.23583 9.252 7.14 9.15719L2.74688 4.83532C2.65045 4.74056 2.52066 4.68746 2.38547 4.68746C2.25028 4.68746 2.12049 4.74056 2.02406 4.83532C1.97658 4.88161 1.93884 4.93693 1.91308 4.99804C1.88731 5.05914 1.87404 5.12478 1.87404 5.1911C1.87404 5.25741 1.88731 5.32305 1.91308 5.38416C1.93884 5.44526 1.97658 5.50059 2.02406 5.54688L6.41531 9.86875C6.70455 10.1527 7.09371 10.3119 7.49906 10.3119C7.90442 10.3119 8.29357 10.1527 8.58281 9.86875L12.9741 5.54688C13.0217 5.50057 13.0595 5.44519 13.0854 5.384C13.1113 5.32281 13.1246 5.25706 13.1246 5.19063C13.1246 5.1242 13.1113 5.05845 13.0854 4.99726C13.0595 4.93607 13.0217 4.88068 12.9741 4.83438C12.8776 4.73962 12.7479 4.68652 12.6127 4.68652C12.4775 4.68652 12.3477 4.73962 12.2513 4.83438" fill="black" fill-opacity="0.5"/>
</g>
</g>
</g>
</g>
</g>
</g>
</g>
</g>
</g>
<defs>
<clipPath id="clip0_280_2145">
<rect width="15" height="15" fill="white"/>
</clipPath>
<clipPath id="clip1_280_2145">
<rect width="15" height="15" fill="white"/>
</clipPath>
<clipPath id="clip2_280_2145">
<rect width="15" height="15" fill="white"/>
</clipPath>
<clipPath id="clip3_280_2145">
<rect width="15" height="15" fill="white"/>
</clipPath>
<clipPath id="clip4_280_2145">
<rect width="15" height="15" fill="white"/>
</clipPath>
<clipPath id="clip5_280_2145">
<rect width="15" height="15" fill="white"/>
</clipPath>
<clipPath id="clip6_280_2145">
<rect width="15" height="15" fill="white"/>
</clipPath>
<clipPath id="clip7_280_2145">
<rect width="15" height="15" fill="white"/>
</clipPath>
<clipPath id="clip8_280_2145">
<rect width="15" height="15" fill="white"/>
</clipPath>
</defs>
</svg>
