<svg width="115" height="125" viewBox="0 0 115 125" fill="none" xmlns="http://www.w3.org/2000/svg">
<g filter="url(#filter0_d_18_106)">
<circle cx="57.5" cy="57.5" r="37.5" fill="#FAFAFA"/>
</g>
<path d="M51.7501 53.875C51.7501 53.4606 51.9147 53.0632 52.2077 52.7702C52.5008 52.4772 52.8982 52.3125 53.3126 52.3125H62.6876C63.102 52.3125 63.4994 52.4772 63.7925 52.7702C64.0855 53.0632 64.2501 53.4606 64.2501 53.875C64.2501 54.2894 64.0855 54.6869 63.7925 54.9799C63.4994 55.2729 63.102 55.4375 62.6876 55.4375H53.3126C52.8982 55.4375 52.5008 55.2729 52.2077 54.9799C51.9147 54.6869 51.7501 54.2894 51.7501 53.875ZM53.3126 58.5625C52.8982 58.5625 52.5008 58.7272 52.2077 59.0202C51.9147 59.3132 51.7501 59.7106 51.7501 60.125C51.7501 60.5394 51.9147 60.9369 52.2077 61.2299C52.5008 61.5229 52.8982 61.6875 53.3126 61.6875H59.5626C59.977 61.6875 60.3744 61.5229 60.6675 61.2299C60.9605 60.9369 61.1251 60.5394 61.1251 60.125C61.1251 59.7106 60.9605 59.3132 60.6675 59.0202C60.3744 58.7272 59.977 58.5625 59.5626 58.5625H53.3126ZM39.2501 57C39.2509 52.8721 40.6139 48.8597 43.1278 45.5854C45.6416 42.3112 49.1657 39.958 53.1534 38.8909C57.141 37.8239 61.3694 38.1026 65.1825 39.6839C68.9956 41.2651 72.1803 44.0606 74.2426 47.6365C76.3049 51.2124 77.1294 55.369 76.5883 59.4613C76.0473 63.5537 74.1708 67.3531 71.2501 70.2702C68.3293 73.1873 64.5275 75.059 60.4345 75.595C56.3415 76.1309 52.1859 75.3012 48.6126 73.2344L41.3064 75.6719C41.0364 75.762 40.747 75.7767 40.4693 75.7144C40.1917 75.6521 39.9363 75.5151 39.7308 75.3183C39.5252 75.1214 39.3774 74.8722 39.3031 74.5975C39.2289 74.3228 39.2311 74.033 39.3095 73.7594L41.5345 65.975C40.0345 63.2215 39.2491 60.1357 39.2501 57ZM58.0001 41.375C55.2413 41.3749 52.5316 42.1051 50.1465 43.4916C47.7614 44.8781 45.7859 46.8714 44.4209 49.2688C43.0558 51.6662 42.3499 54.3823 42.3748 57.141C42.3996 59.8997 43.1545 62.6026 44.5626 64.975C44.6709 65.1583 44.7407 65.3618 44.7676 65.573C44.7944 65.7842 44.7778 65.9986 44.7189 66.2032L43.1282 71.7657L48.3095 70.0407C48.5295 69.9672 48.7632 69.9437 48.9934 69.9718C49.2237 69.9999 49.4448 70.079 49.6407 70.2032C51.6884 71.4991 54.0095 72.3009 56.4205 72.5454C58.8315 72.7898 61.2663 72.4701 63.5324 71.6115C65.7985 70.7529 67.8339 69.379 69.4776 67.5983C71.1213 65.8176 72.3284 63.6791 73.0033 61.3516C73.6782 59.0242 73.8025 56.5716 73.3663 54.1879C72.9301 51.8041 71.9455 49.5545 70.4902 47.6167C69.0349 45.679 67.1489 44.1064 64.9812 43.0231C62.8134 41.9398 60.4234 41.3756 58.0001 41.375Z" fill="#E95200"/>
<defs>
<filter id="filter0_d_18_106" x="0.200001" y="0.200001" width="124.6" height="124.6" filterUnits="userSpaceOnUse" color-interpolation-filters="sRGB">
<feFlood flood-opacity="0" result="BackgroundImageFix"/>
<feColorMatrix in="SourceAlpha" type="matrix" values="0 0 0 0 0 0 0 0 0 0 0 0 0 0 0 0 0 0 127 0" result="hardAlpha"/>
<feOffset dx="5" dy="5"/>
<feGaussianBlur stdDeviation="12.4"/>
<feComposite in2="hardAlpha" operator="out"/>
<feColorMatrix type="matrix" values="0 0 0 0 0.726667 0 0 0 0 0.726061 0 0 0 0 0.726061 0 0 0 0.4 0"/>
<feBlend mode="normal" in2="BackgroundImageFix" result="effect1_dropShadow_18_106"/>
<feBlend mode="normal" in="SourceGraphic" in2="effect1_dropShadow_18_106" result="shape"/>
</filter>
</defs>
</svg>
