<svg width="75" height="75" viewBox="0 0 75 75" fill="none" xmlns="http://www.w3.org/2000/svg">
<circle cx="37.5" cy="37.5" r="37.5" fill="#E95200"/>
<path d="M31.7501 33.875C31.7501 33.4606 31.9147 33.0632 32.2077 32.7702C32.5008 32.4772 32.8982 32.3125 33.3126 32.3125H42.6876C43.102 32.3125 43.4994 32.4772 43.7925 32.7702C44.0855 33.0632 44.2501 33.4606 44.2501 33.875C44.2501 34.2894 44.0855 34.6869 43.7925 34.9799C43.4994 35.2729 43.102 35.4375 42.6876 35.4375H33.3126C32.8982 35.4375 32.5008 35.2729 32.2077 34.9799C31.9147 34.6869 31.7501 34.2894 31.7501 33.875ZM33.3126 38.5625C32.8982 38.5625 32.5008 38.7272 32.2077 39.0202C31.9147 39.3132 31.7501 39.7106 31.7501 40.125C31.7501 40.5394 31.9147 40.9369 32.2077 41.2299C32.5008 41.5229 32.8982 41.6875 33.3126 41.6875H39.5626C39.977 41.6875 40.3744 41.5229 40.6675 41.2299C40.9605 40.9369 41.1251 40.5394 41.1251 40.125C41.1251 39.7106 40.9605 39.3132 40.6675 39.0202C40.3744 38.7272 39.977 38.5625 39.5626 38.5625H33.3126ZM19.2501 37C19.2509 32.8721 20.6139 28.8597 23.1278 25.5854C25.6416 22.3112 29.1657 19.958 33.1534 18.8909C37.141 17.8239 41.3694 18.1026 45.1825 19.6839C48.9956 21.2651 52.1803 24.0606 54.2426 27.6365C56.3049 31.2124 57.1294 35.369 56.5883 39.4613C56.0473 43.5537 54.1708 47.3531 51.2501 50.2702C48.3293 53.1873 44.5275 55.059 40.4345 55.595C36.3415 56.1309 32.1859 55.3012 28.6126 53.2344L21.3064 55.6719C21.0364 55.762 20.747 55.7767 20.4693 55.7144C20.1917 55.6521 19.9363 55.5151 19.7308 55.3183C19.5252 55.1214 19.3774 54.8722 19.3031 54.5975C19.2289 54.3228 19.2311 54.033 19.3095 53.7594L21.5345 45.975C20.0345 43.2215 19.2491 40.1357 19.2501 37ZM38.0001 21.375C35.2413 21.3749 32.5316 22.1051 30.1465 23.4916C27.7614 24.8781 25.7859 26.8714 24.4209 29.2688C23.0558 31.6662 22.3499 34.3823 22.3748 37.141C22.3996 39.8997 23.1545 42.6026 24.5626 44.975C24.6709 45.1583 24.7407 45.3618 24.7676 45.573C24.7944 45.7842 24.7778 45.9986 24.7189 46.2032L23.1282 51.7657L28.3095 50.0407C28.5295 49.9672 28.7632 49.9437 28.9934 49.9718C29.2237 49.9999 29.4448 50.079 29.6407 50.2032C31.6884 51.4991 34.0095 52.3009 36.4205 52.5454C38.8315 52.7898 41.2663 52.4701 43.5324 51.6115C45.7985 50.7529 47.8339 49.379 49.4776 47.5983C51.1213 45.8176 52.3284 43.6791 53.0033 41.3516C53.6782 39.0242 53.8025 36.5716 53.3663 34.1879C52.9301 31.8041 51.9455 29.5545 50.4902 27.6167C49.0349 25.679 47.1489 24.1064 44.9812 23.0231C42.8134 21.9398 40.4234 21.3756 38.0001 21.375Z" fill="white"/>
</svg>
