<svg width="15" height="15" viewBox="0 0 15 15" fill="none" xmlns="http://www.w3.org/2000/svg">
<g clip-path="url(#clip0_280_2115)">
<g clip-path="url(#clip1_280_2115)">
<g clip-path="url(#clip2_280_2115)">
<g clip-path="url(#clip3_280_2115)">
<path d="M11.5238 3.09608H10.3125V2.21608C10.3125 2.05233 10.1688 1.89608 10 1.90358C9.91763 1.90518 9.83907 1.93862 9.78081 1.99688C9.72255 2.05514 9.68911 2.1337 9.68751 2.21608V3.09608H5.31251V2.21608C5.31251 2.05233 5.16876 1.89608 5.00001 1.90358C4.91763 1.90518 4.83907 1.93862 4.78081 1.99688C4.72254 2.05514 4.68911 2.1337 4.68751 2.21608V3.09608H3.47626C3.06201 3.09658 2.66487 3.26136 2.37195 3.55427C2.07903 3.84719 1.91425 4.24433 1.91376 4.65858V11.5336C1.91376 12.3955 2.61501 13.0961 3.47626 13.0961H11.5231C12.385 13.0961 13.0856 12.3955 13.0856 11.5336V4.65858C13.0856 4.24429 12.9211 3.84695 12.6282 3.55395C12.3353 3.26094 11.938 3.09625 11.5238 3.09608ZM3.47626 3.72108H4.68751V4.09108C4.68751 4.25483 4.83126 4.41108 5.00001 4.40358C5.16938 4.39608 5.31251 4.26608 5.31251 4.09108V3.72108H9.68751V4.09108C9.68751 4.25483 9.83126 4.41108 10 4.40358C10.1694 4.39608 10.3125 4.26608 10.3125 4.09108V3.72108H11.5231C12.04 3.72108 12.4606 4.1417 12.4606 4.65858V5.64858H2.53876V4.65858C2.53876 4.1417 2.95938 3.72108 3.47626 3.72108ZM11.5238 12.4711H3.47626C2.95938 12.4711 2.53876 12.0505 2.53876 11.5336V6.27358H12.4606V11.5336C12.4606 11.7821 12.3619 12.0205 12.1863 12.1963C12.0106 12.3721 11.7723 12.4709 11.5238 12.4711Z" fill="black" fill-opacity="0.5"/>
</g>
</g>
</g>
</g>
<defs>
<clipPath id="clip0_280_2115">
<rect width="15" height="15" fill="white"/>
</clipPath>
<clipPath id="clip1_280_2115">
<rect width="15" height="15" fill="white"/>
</clipPath>
<clipPath id="clip2_280_2115">
<rect width="15" height="15" fill="white"/>
</clipPath>
<clipPath id="clip3_280_2115">
<rect width="15" height="15" fill="white"/>
</clipPath>
</defs>
</svg>
