<svg width="15" height="15" viewBox="0 0 15 15" fill="none" xmlns="http://www.w3.org/2000/svg">
<g clip-path="url(#clip0_280_2034)">
<g clip-path="url(#clip1_280_2034)">
<path d="M2.885 11.875C2.59708 11.875 2.35688 11.7788 2.16438 11.5863C1.97188 11.3938 1.87542 11.1533 1.875 10.865V4.135C1.875 3.84708 1.97146 3.60687 2.16438 3.41437C2.35729 3.22187 2.59729 3.12542 2.88437 3.125H12.1156C12.4031 3.125 12.6431 3.22146 12.8356 3.41437C13.0281 3.60729 13.1246 3.8475 13.125 4.135V10.8656C13.125 11.1531 13.0285 11.3933 12.8356 11.5863C12.6427 11.7792 12.4027 11.8754 12.1156 11.875H2.885ZM7.5 7.5725L2.5 4.30313V10.8656C2.5 10.9777 2.53604 11.0698 2.60812 11.1419C2.68021 11.214 2.7725 11.25 2.885 11.25H12.1156C12.2277 11.25 12.3198 11.214 12.3919 11.1419C12.464 11.0698 12.5 10.9775 12.5 10.865V4.3025L7.5 7.5725ZM7.5 6.875L12.3075 3.75H2.6925L7.5 6.875ZM2.5 4.30313V3.75V10.8656C2.5 10.9777 2.53604 11.0698 2.60812 11.1419C2.68021 11.214 2.7725 11.25 2.885 11.25H2.5V4.30313Z" fill="black" fill-opacity="0.5"/>
</g>
</g>
<defs>
<clipPath id="clip0_280_2034">
<rect width="15" height="15" fill="white"/>
</clipPath>
<clipPath id="clip1_280_2034">
<rect width="15" height="15" fill="white"/>
</clipPath>
</defs>
</svg>
