<svg width="50" height="50" viewBox="0 0 50 50" fill="none" xmlns="http://www.w3.org/2000/svg">
<path d="M18.75 21.875C18.75 21.4606 18.9146 21.0632 19.2076 20.7702C19.5007 20.4772 19.8981 20.3125 20.3125 20.3125H29.6875C30.1019 20.3125 30.4993 20.4772 30.7923 20.7702C31.0854 21.0632 31.25 21.4606 31.25 21.875C31.25 22.2894 31.0854 22.6869 30.7923 22.9799C30.4993 23.2729 30.1019 23.4375 29.6875 23.4375H20.3125C19.8981 23.4375 19.5007 23.2729 19.2076 22.9799C18.9146 22.6869 18.75 22.2894 18.75 21.875ZM20.3125 26.5625C19.8981 26.5625 19.5007 26.7272 19.2076 27.0202C18.9146 27.3132 18.75 27.7106 18.75 28.125C18.75 28.5394 18.9146 28.9369 19.2076 29.2299C19.5007 29.5229 19.8981 29.6875 20.3125 29.6875H26.5625C26.9769 29.6875 27.3743 29.5229 27.6673 29.2299C27.9604 28.9369 28.125 28.5394 28.125 28.125C28.125 27.7106 27.9604 27.3132 27.6673 27.0202C27.3743 26.7272 26.9769 26.5625 26.5625 26.5625H20.3125ZM6.24998 25C6.25078 20.8721 7.61381 16.8597 10.1276 13.5854C12.6415 10.3112 16.1656 7.95798 20.1532 6.89092C24.1409 5.82387 28.3693 6.1026 32.1824 7.68387C35.9955 9.26514 39.1802 12.0606 41.2425 15.6365C43.3047 19.2124 44.1293 23.369 43.5882 27.4613C43.0471 31.5537 41.1707 35.3531 38.2499 38.2702C35.3292 41.1873 31.5274 43.059 27.4344 43.595C23.3413 44.1309 19.1858 43.3012 15.6125 41.2344L8.30623 43.6719C8.0363 43.762 7.74688 43.7767 7.46921 43.7144C7.19154 43.6521 6.93617 43.5151 6.73064 43.3183C6.52512 43.1214 6.37726 42.8722 6.30302 42.5975C6.22877 42.3228 6.23096 42.033 6.30936 41.7594L8.53436 33.975C7.03442 31.2215 6.249 28.1357 6.24998 25ZM25 9.37505C22.2412 9.37487 19.5315 10.1051 17.1464 11.4916C14.7613 12.8781 12.7858 14.8714 11.4208 17.2688C10.0557 19.6662 9.34974 22.3823 9.37463 25.141C9.39953 27.8997 10.1544 30.6026 11.5625 32.975C11.6708 33.1583 11.7406 33.3618 11.7674 33.573C11.7943 33.7842 11.7777 33.9986 11.7187 34.2032L10.1281 39.7657L15.3094 38.0407C15.5294 37.9672 15.763 37.9437 15.9933 37.9718C16.2236 37.9999 16.4447 38.079 16.6406 38.2032C18.6883 39.4991 21.0094 40.3009 23.4204 40.5454C25.8314 40.7898 28.2661 40.4701 30.5323 39.6115C32.7984 38.7529 34.8338 37.379 36.4775 35.5983C38.1212 33.8176 39.3282 31.6791 40.0031 29.3516C40.678 27.0242 40.8023 24.5716 40.3662 22.1879C39.93 19.8041 38.9454 17.5545 37.4901 15.6167C36.0348 13.679 34.1488 12.1064 31.981 11.0231C29.8133 9.93984 27.4233 9.37561 25 9.37505Z" fill="#E95200"/>
</svg>
