<svg width="75" height="50" viewBox="0 0 75 50" fill="none" xmlns="http://www.w3.org/2000/svg">
<g clip-path="url(#clip0_114_154)">
<path d="M17.6227 26.9291C17.7478 26.7957 17.8762 26.6167 18.0671 26.6069C18.258 26.5955 18.4505 26.7501 18.5854 26.8754C19.0445 27.305 19.7768 28.3285 20.4104 28.2829C20.6046 28.2699 20.7708 28.1886 20.8794 28.0405C20.9156 27.9917 20.9502 27.9429 20.9847 27.894C21.0193 27.842 21.1855 27.5946 21.1888 27.5881C22.2469 25.9088 23.6489 22.285 25.1185 21.3347C27.5721 19.7465 28.9165 17.1803 30.5292 14.9998C30.6444 14.8436 30.8221 14.7623 31.0262 14.7558C31.2302 14.7492 31.4162 14.8176 31.5396 14.9689L35.5763 19.8962L35.5697 19.9255L35.6125 19.9401L37.5214 22.2719L38.0299 22.8935L38.2635 23.1799H38.2652L38.3343 23.2678C38.4347 23.3899 38.4873 23.5314 38.4791 23.673C38.4841 23.7657 38.4643 23.8601 38.4182 23.9513C38.15 24.4671 37.8538 25.0366 37.5658 25.5899C38.8691 23.9252 39.8137 23.577 40.9837 21.4144C41.4626 20.5292 42.0863 20.067 42.6655 19.3576C42.7873 19.2095 42.9683 19.1395 43.1707 19.1428C43.3731 19.146 43.5492 19.2225 43.6677 19.3738C44.7851 20.8074 46.3681 22.2394 47.2749 23.9984C48.0615 25.5264 49.3928 26.7143 50.4509 28.0714C50.5743 28.2292 50.7635 28.3074 50.9742 28.3025C51.1848 28.2976 51.3642 28.2081 51.4843 28.0486C52.4437 26.7712 53.0921 25.9056 54.007 24.6884C54.1255 24.5305 54.3016 24.441 54.5106 24.4345C54.7196 24.428 54.8973 24.5094 55.0322 24.6558L60.3311 30.4407C60.9959 28.2732 61.353 25.9739 61.353 23.5916C61.3546 10.5607 50.6747 0 37.5 0C24.3253 0 13.6453 10.5607 13.6453 23.5884C13.6453 25.9137 13.986 28.1609 14.6195 30.2844C15.7731 29.3439 16.5959 28.0193 17.6211 26.9307L17.6227 26.9291Z" fill="url(#paint0_linear_114_154)"/>
<path d="M74.5721 38.1488H74.9984L69.9167 37.5174L68.6776 37.3629L68.2366 37.3075L68.1806 37.301L67.9502 37.2717H67.9321V37.2701L66.4165 37.0813L60.3311 30.4374L55.0323 24.6525C54.8973 24.5061 54.7196 24.4247 54.5106 24.4312C54.3016 24.4377 54.1255 24.5272 54.007 24.6851C53.0921 25.9039 52.4437 26.7679 51.4843 28.0453C51.3642 28.2048 51.1848 28.2943 50.9742 28.2992C50.7636 28.304 50.5743 28.2259 50.4509 28.0681C49.3928 26.711 48.0615 25.5231 47.2749 23.9951C46.3682 22.2361 44.7867 20.8041 43.6677 19.3705C43.5509 19.2192 43.3732 19.1427 43.1707 19.1395C42.9683 19.1362 42.7873 19.2062 42.6655 19.3543C42.0863 20.0637 41.4626 20.5259 40.9837 21.4111C39.8137 23.5737 38.8675 23.9219 37.5658 25.5866C37.8538 25.0333 38.15 24.4638 38.4182 23.9479C38.466 23.8568 38.4841 23.7624 38.4791 23.6697C38.4857 23.5281 38.4347 23.3866 38.3343 23.2645L38.2652 23.1799H38.2636L38.0299 22.8919L37.5214 22.2703L35.6125 19.9384L35.5697 19.9238L35.5763 19.8945L31.5396 14.9672C31.4162 14.8175 31.2302 14.7476 31.0262 14.7541C30.8221 14.7606 30.6444 14.8419 30.5292 14.9982C28.9149 17.1787 27.5721 19.7448 25.1185 21.333C23.649 22.2833 22.2469 25.9088 21.1888 27.5864C21.1855 27.5929 21.0193 27.8403 20.9847 27.8924C20.9502 27.9412 20.9156 27.99 20.8794 28.0388C20.7692 28.1869 20.6046 28.2666 20.4104 28.2813C19.7769 28.3252 19.0446 27.3033 18.5854 26.8737C18.4505 26.7484 18.258 26.5938 18.0671 26.6052C17.8762 26.6166 17.7478 26.7956 17.6228 26.9274C16.5975 28.0177 15.7747 29.3406 14.6212 30.2811C14.4616 30.4113 14.297 30.5334 14.1226 30.6473C12.4292 31.757 11.1506 33.3973 9.85058 35.0066L9.43588 35.5159C9.02284 36.0188 8.60321 36.5134 8.16383 36.9805L4.56819 37.4279L4.06299 37.4914H4.05312L3.93628 37.5077L3.30766 37.5858H3.29449L-0.00164795 37.9975C0.120127 37.9991 0.243547 38.0024 0.366967 38.004L-2.34635e-06 38.0528C1.00546 38.0707 2.01751 38.0967 3.0312 38.1211L3.40804 38.1309C3.45083 38.1309 3.49526 38.1325 3.53804 38.1342H3.61045V38.1358C5.13592 38.1716 6.6614 38.2025 8.16548 38.2025C8.57194 37.9454 9.375 37.4296 10.2044 37.0114L10.652 36.7982C10.8857 36.6941 11.1144 36.6029 11.3333 36.533C11.4468 36.5004 11.8006 36.4142 11.8253 36.4077C12.1462 36.354 12.421 36.3719 12.6119 36.4972C13.7638 37.2506 14.3595 36.725 14.8483 35.9228C14.8532 35.9146 15.2054 35.3662 15.2597 35.1726C15.5016 34.7153 15.7484 34.2614 16.0644 33.9554C16.0874 33.9326 16.1121 33.9099 16.1368 33.8887C16.9382 33.1923 18.3945 34.4599 18.7154 34.3037C18.8882 34.219 19.0725 34.0775 19.0511 33.9066C19.0544 33.8806 19.0528 33.8529 19.0462 33.8253C18.8981 33.2508 18.1016 31.2201 18.0918 30.0826C18.0967 29.7084 18.1954 29.4399 18.4406 29.3683C19.0396 29.1958 20.0912 30.4406 20.5914 30.9467C20.5914 30.9467 21.1016 31.6203 21.7236 30.8051C22.1054 30.4878 22.6386 30.0208 23.203 29.5473L23.9106 28.9663C24.7745 28.2764 25.5875 27.7101 25.9182 27.7703C25.9841 27.7882 26.0614 27.8484 26.0696 28.0323C26.0598 28.1283 26.0318 28.2471 25.9808 28.3935L24.6166 32.3998C24.5886 32.4828 24.3697 32.8636 24.0966 33.3436C24.0966 33.3436 23.1191 34.9562 22.9331 35.5875C22.8903 35.7177 22.8805 35.8023 22.92 35.8186C23.1076 36.0448 24.4981 34.3883 24.4981 34.3883C25.1053 33.7097 25.6698 33.0328 25.7372 32.9238L26.8579 31.1485L26.9961 30.9288L27.2907 30.4634L27.8798 29.5294L30.7909 24.9145L30.7843 24.9048L30.8337 24.8462L32.7442 21.8195C32.7458 21.8163 32.7475 21.8146 32.7491 21.813C32.6603 22.1873 31.9609 24.2343 31.9856 24.7469C31.9823 24.838 31.9955 24.8966 32.0267 24.9129C32.2785 25.0382 33.098 26.0585 33.1408 26.423C33.1408 26.4295 33.1391 26.436 33.1375 26.4425L32.476 28.4001C32.4464 28.4863 32.2044 28.9061 31.928 29.3976C31.928 29.3976 31.5511 30.0484 31.5758 30.0354C31.2846 30.5773 31.0427 31.0752 31.069 31.2103C31.064 31.251 31.069 31.2786 31.0838 31.2917C31.1809 31.3714 31.6943 30.8539 32.211 30.3104C32.2851 30.2323 32.9071 29.5749 32.9252 29.5554C32.9927 29.4854 33.0569 29.4203 33.1112 29.3666C33.1161 29.3666 33.1227 29.3601 33.1326 29.3455C33.1408 29.3373 33.149 29.3292 33.1556 29.3227C33.5143 29.0461 37.2663 27.6174 37.2663 27.6174C37.7501 27.4595 38.1944 27.3456 38.28 27.427C38.2849 27.4319 38.2882 27.4367 38.2899 27.4416C38.1961 27.7394 36.8286 28.6653 36.7183 28.872C36.6887 28.9273 36.6459 28.9989 36.5949 29.0835C36.5834 29.0998 36.1012 29.7865 36.1144 29.8271C35.387 30.9288 34.3207 32.5267 34.3618 32.9498C34.352 33.0816 34.4112 33.1402 34.5692 33.093C34.8407 33.0116 34.9427 33.2671 34.9477 33.6853C34.9411 34.4631 34.6284 35.7503 34.4309 36.5395L34.4425 36.5492L34.4194 36.6062H34.4145C34.319 36.9902 34.2565 37.2376 34.2812 37.2245C34.273 37.275 34.2746 37.2913 34.2894 37.2685L37.1988 32.8245L37.4243 32.4812L37.6547 32.1297L37.7057 32.0532L42.19 25.2025C42.3331 24.9845 42.6277 24.9145 42.891 24.9894C43.1082 25.0512 43.6644 23.5818 43.8504 23.1978L43.8454 23.2043V23.1571C43.8454 23.1571 43.8487 23.149 43.8504 23.1457L43.8454 23.1522V23.1376H43.8816C43.8965 23.1132 43.9047 23.1018 43.9096 23.1099C43.8537 24.2002 43.4768 25.4824 43.4851 26.5352C43.4834 26.9616 43.5426 27.3521 43.7089 27.6776C43.8438 27.9412 43.8948 28.2211 43.8981 28.5091C43.8981 28.6246 43.8882 28.7401 43.8751 28.8573C43.8718 28.885 43.8487 29.0477 43.8092 29.282C43.7977 29.3471 43.7846 29.4122 43.7714 29.4789C43.7714 29.4805 43.7714 29.4822 43.773 29.4838C43.7697 29.4984 43.7681 29.5131 43.7648 29.5277L43.7599 29.5342C43.7253 29.7018 43.6891 29.8694 43.6578 30.0371C43.5558 30.4732 43.4192 30.932 43.2464 31.2363C43.1987 31.303 43.1477 31.3746 43.095 31.4479C43.0539 31.4902 43.0309 31.5243 43.021 31.552C42.5586 32.1948 41.9826 32.9856 42.0501 33.0653C42.0419 33.093 42.0419 33.1125 42.0501 33.1207C42.06 33.1288 42.111 33.1207 42.1933 33.1011C42.2426 33.0897 42.3035 33.0718 42.3759 33.0507C42.8285 32.9254 43.9672 32.6032 44.0692 32.4909C44.321 32.4047 44.5843 32.3119 44.8542 32.2175H44.8591C44.9217 32.1964 44.9842 32.1736 45.0467 32.1525L45.1932 32.1004C45.4943 31.9946 45.7988 31.8872 46.0999 31.7814L47.0856 31.4348C47.4905 31.2933 47.8689 31.1615 48.1948 31.0508L48.881 30.823C49.113 30.7498 49.2677 30.7042 49.3171 30.701C49.3516 30.6993 49.3697 30.7058 49.378 30.7221C49.3418 30.849 49.1262 31.1094 49.1509 31.2656C49.1459 31.3047 49.1509 31.3405 49.169 31.3698C49.2299 31.4641 49.2693 31.5699 49.2743 31.674C49.2693 31.7668 49.2348 31.8563 49.1657 31.9312L48.7131 32.4193L48.6292 32.5104L45.8712 35.4818C45.8514 35.5029 45.8679 35.5046 45.914 35.4883L45.8712 35.5338C45.6688 35.7519 49.2957 33.835 49.5261 34.027C49.7564 34.219 50.0675 34.1898 50.3439 34.0579L52.3483 33.1011L52.3532 33.0979L52.549 33.0035L52.8749 32.8473L53.2649 32.6618L53.5759 32.5137L53.984 32.3201L54.69 29.9785C54.769 29.7149 55.289 29.7734 55.4766 29.985L58.9587 33.8936L60.1912 35.2767C60.3986 35.5094 60.8116 35.4443 61.042 35.2312C61.1884 35.0961 62.4753 36.2482 64.1193 37.2197C63.8494 37.2864 62.3881 37.3629 60.2735 37.441L57.7574 37.5256C57.4184 37.5386 57.0728 37.5484 56.719 37.5598C53.334 37.6639 49.3105 37.7697 45.7988 37.8624C44.4938 37.8982 43.2596 37.9308 42.1571 37.9617H42.1505C42.0238 37.9649 41.897 37.9698 41.7736 37.9731L41.6782 37.9763C41.5679 37.9796 41.4593 37.9828 41.354 37.9861H41.3408C39.4303 38.043 38.0167 38.0919 37.472 38.1277L21.4883 38.2627L18.8224 38.2855L12.89 38.3359V38.541L19.1137 38.6402L21.4883 38.6777L22.5991 38.6956L19.1844 38.7248L12.0014 38.7867L3.5002 38.8599V39.0649L12.0014 39.2033L19.711 39.3286L28.7618 39.475L45.5223 39.3318L55.34 39.2472L56.6235 39.2358V39.0959L55.4897 39.078L45.5207 38.9169L44.5053 38.9006L55.3926 38.8078L55.7267 38.8046L66.6222 38.7118V38.5719L56.0608 38.4027L55.3926 38.3913L44.2799 38.2139H74.9868L74.5606 38.1602L74.5721 38.1488ZM23.2408 23.8015L23.231 23.7787L23.2672 23.7543C23.2589 23.7706 23.2491 23.7852 23.2408 23.8015ZM34.9477 33.9619H34.9444C34.9444 33.9619 34.9477 33.9587 34.9477 33.9571C34.9477 33.9571 34.9477 33.9603 34.9477 33.9619ZM43.6891 29.9183V29.915V29.9118C43.6891 29.9134 43.6891 29.9166 43.6891 29.9183ZM61.9438 32.2517L61.9142 32.2208C61.9191 32.2127 61.9224 32.2029 61.9273 32.1948C61.9405 32.2078 61.9454 32.2273 61.9438 32.2533V32.2517Z" fill="black"/>
<path d="M3.82602 41.8557H8.20168L7.76395 43.7287H5.56049L5.34491 44.6546H7.0333L6.67127 46.2021H4.98288L4.76237 47.1491H6.96583L6.53304 49.0025H2.15738L3.82602 41.8557Z" fill="black"/>
<path d="M16.9908 41.8557H22.1696L21.722 43.7693H20.2294L19.0084 49.0025H16.8362L18.0572 43.7693H16.5432L16.9908 41.8557Z" fill="black"/>
<path d="M22.5299 41.8557L24.6972 41.8769C24.9572 41.8769 25.1794 41.8834 25.362 41.898C25.5447 41.911 25.7323 41.9387 25.9248 41.9794C26.1174 42.0201 26.277 42.0754 26.4004 42.147C26.5238 42.2186 26.6374 42.3146 26.7394 42.4366C26.8414 42.5587 26.9122 42.7068 26.95 42.8792C26.9879 43.0517 27.001 43.2633 26.9879 43.5106C26.9747 43.758 26.9303 44.0411 26.8562 44.36C26.6127 45.3722 26.1338 46.0702 25.4196 46.4575L26.6456 49.9805L24.3171 49.9903L23.3906 47.4762L23.0335 49.0025H20.8613L22.5299 41.8557ZM25.0708 44.4219C25.1514 44.1029 25.1316 43.9044 25.0099 43.8263C24.8881 43.7482 24.6363 43.7156 24.2545 43.7303L23.9386 45.0841H24.2776C24.3812 45.0841 24.4734 45.0744 24.5573 45.0532C24.6412 45.0337 24.7137 44.9995 24.7762 44.9507C24.8387 44.9035 24.8963 44.8352 24.9473 44.7473C24.9983 44.6594 25.0395 44.5504 25.0691 44.4219H25.0708Z" fill="black"/>
<path d="M28.3274 41.8557H32.7031L32.2653 43.7287H30.0619L29.8463 44.6546H31.5347L31.1726 46.2021H29.4843L29.2637 47.1491H31.4672L31.0344 49.0025H26.6588L28.3274 41.8557Z" fill="black"/>
<path d="M33.0618 41.8556H35.234L35.4562 44.6952L37.0047 41.8556H39.1769L37.2745 49.9999H35.1023L35.9795 46.2427L34.4392 49.0008L34.2038 46.2622L33.5637 49.0008H31.3915L33.0602 41.854L33.0618 41.8556Z" fill="black"/>
<path d="M39.6409 41.8557H44.0166L43.5789 43.7287H41.3754L41.1598 44.6546H42.8482L42.4862 46.2021H40.7978L40.5773 47.1491H42.7807L42.3479 49.0025H37.9723L39.6409 41.8557Z" fill="black"/>
<path d="M47.2601 41.8557H52.4388L51.9912 43.7693H50.4986L49.2776 49.0025H47.1054L48.3264 43.7693H46.8125L47.2601 41.8557Z" fill="black"/>
<path d="M52.7992 41.8557L54.9664 41.8769C55.2264 41.8769 55.4486 41.8834 55.6312 41.898C55.8139 41.911 56.0015 41.9387 56.194 41.9794C56.3866 42.0201 56.5462 42.0754 56.6696 42.147C56.793 42.2186 56.9066 42.3146 57.0086 42.4366C57.1106 42.5587 57.1814 42.7068 57.2193 42.8792C57.2571 43.0517 57.2703 43.2633 57.2571 43.5106C57.2439 43.758 57.1995 44.0411 57.1255 44.36C56.8819 45.3722 56.403 46.0702 55.6888 46.4575L56.9148 49.9805L54.5863 49.9903L53.6598 47.4762L53.3027 49.0025H51.1305L52.7992 41.8557ZM55.34 44.4219C55.4206 44.1029 55.4009 43.9044 55.2791 43.8263C55.1573 43.7482 54.9055 43.7156 54.5238 43.7303L54.2078 45.0841H54.5468C54.6505 45.0841 54.7426 45.0744 54.8266 45.0532C54.9105 45.0337 54.9829 44.9995 55.0454 44.9507C55.1079 44.9035 55.1655 44.8352 55.2166 44.7473C55.2676 44.6594 55.3087 44.5504 55.3383 44.4219H55.34Z" fill="black"/>
<path d="M58.595 41.8557H60.7672L59.0985 49.0025H56.9263L58.595 41.8557Z" fill="black"/>
<path d="M61.1276 41.8556L63.2948 41.8768C63.5071 41.8768 63.6931 41.8833 63.851 41.8979C64.009 41.911 64.1851 41.9386 64.3776 41.9793C64.5702 42.02 64.7314 42.0753 64.8581 42.1469C64.9849 42.2185 65.1083 42.3145 65.2284 42.4366C65.3469 42.5586 65.4325 42.7067 65.4851 42.8792C65.5378 43.0517 65.5625 43.2648 65.5625 43.5154C65.5625 43.766 65.5263 44.0475 65.4522 44.3599C65.3518 44.7879 65.207 45.1573 65.0178 45.4697C64.8285 45.7821 64.6278 46.0246 64.4155 46.1971C64.2032 46.3696 63.9547 46.5079 63.67 46.6088C63.3853 46.7113 63.1303 46.7764 62.9032 46.8073C62.6761 46.8382 62.4194 46.8529 62.1314 46.8529L61.6295 49.0008H59.4573L61.1259 41.854L61.1276 41.8556ZM63.6503 44.4104C63.6733 44.3079 63.6881 44.2216 63.6898 44.15C63.6931 44.0784 63.6931 44.0182 63.6898 43.9662C63.6881 43.9157 63.6667 43.875 63.6256 43.8441C63.5845 43.8132 63.5515 43.7904 63.5236 43.7725C63.4972 43.7562 63.4363 43.7432 63.3409 43.7367C63.2455 43.7302 63.173 43.727 63.122 43.727H62.8291L62.5132 45.0808C62.9098 45.0873 63.1796 45.0548 63.3228 44.9848C63.466 44.9132 63.5746 44.7212 63.647 44.4104H63.6503Z" fill="black"/>
<path d="M68.8158 41.8655H71.4521L70.9979 43.7693H68.1773C68.0885 43.7693 68.0029 43.8051 67.9206 43.8767C67.8383 43.9483 67.7873 44.0313 67.7643 44.1257C67.7413 44.2201 67.7561 44.3014 67.8054 44.3698C67.8548 44.4381 67.9239 44.4723 68.0128 44.4723C68.1905 44.4723 68.332 44.4739 68.4341 44.4772C68.5361 44.4804 68.6743 44.4886 68.8504 44.5032C69.0248 44.5162 69.1647 44.5374 69.2684 44.5651C69.372 44.5927 69.4955 44.6318 69.637 44.6822C69.7802 44.7327 69.8904 44.7961 69.9694 44.871C70.0484 44.9458 70.129 45.0402 70.2113 45.1557C70.2936 45.2713 70.3479 45.4015 70.3726 45.5479C70.3973 45.6944 70.4055 45.8668 70.4006 46.067C70.3956 46.2671 70.3643 46.4868 70.3084 46.7244C70.236 47.0368 70.1455 47.3118 70.0385 47.5494C69.9316 47.787 69.8197 47.9839 69.7045 48.1401C69.5893 48.2963 69.4494 48.4297 69.2865 48.542C69.1236 48.6543 68.9755 48.7373 68.8422 48.791C68.7089 48.8447 68.5427 48.887 68.3435 48.9179C68.1444 48.9488 67.9799 48.9667 67.8515 48.9732C67.7232 48.9797 67.5553 48.983 67.3496 48.983H64.7347L65.1626 47.1507H67.9733C68.0621 47.1507 68.151 47.1052 68.2366 47.014C68.3238 46.9229 68.3797 46.822 68.4044 46.713C68.4258 46.6186 68.4127 46.5373 68.3633 46.4689C68.3139 46.4006 68.2448 46.3664 68.156 46.3664C67.9914 46.3664 67.8614 46.3664 67.7659 46.3615C67.6705 46.3583 67.5372 46.3501 67.3644 46.3355C67.1933 46.3225 67.055 46.3029 66.9497 46.2802C66.846 46.2558 66.721 46.2183 66.5745 46.1679C66.4281 46.1174 66.3145 46.054 66.2322 45.9791C66.15 45.9043 66.066 45.8099 65.9788 45.6944C65.8932 45.5788 65.834 45.4486 65.8027 45.3022C65.7715 45.1557 65.7583 44.9833 65.7649 44.7831C65.7698 44.583 65.8011 44.36 65.8587 44.1159C65.9294 43.81 66.0232 43.5366 66.1368 43.2958C66.252 43.055 66.3705 42.8565 66.4922 42.7003C66.614 42.544 66.7588 42.4122 66.925 42.3032C67.0912 42.1942 67.2426 42.1112 67.3792 42.0542C67.5158 41.9973 67.682 41.9517 67.8778 41.9224C68.0737 41.8915 68.2316 41.8752 68.3534 41.872C68.4735 41.8687 68.6266 41.8671 68.8125 41.8671L68.8158 41.8655Z" fill="black"/>
<path d="M16.7802 47.9544C16.0973 47.2156 14.9075 45.8601 14.7051 45.6535C15.0556 45.1604 15.5082 44.6332 15.7731 44.0962C15.1099 44.7097 14.5323 45.4712 13.93 46.1449C13.0957 47.0773 12.189 47.9967 11.4123 48.973H12.1906C12.6185 48.3579 13.0529 47.7103 13.5302 47.1342C14.0781 47.7445 14.6409 48.4181 15.2169 49.0007C15.7583 49.0007 15.393 49.0007 16.7243 49.0007H17.6952L16.7786 47.9544H16.7802Z" fill="url(#paint1_linear_114_154)"/>
<path d="M14.3398 43.1622C14.659 42.9084 15.0754 42.6578 15.3238 42.3356C15.133 42.3356 13.4166 43.6309 13.1056 43.857C12.5214 43.198 11.9339 42.5439 11.3398 41.8946C10.5006 41.8995 9.64323 41.9304 8.80562 41.8767C9.71399 42.8563 10.5598 43.914 11.5093 44.8545C9.96412 46.0245 8.50118 47.3052 6.94279 48.4572C6.72557 48.6395 6.45076 48.8608 6.20392 49.0024H7.12546C9.11334 47.4663 11.121 45.7739 13.076 44.1874L14.3414 43.1622H14.3398Z" fill="url(#paint2_linear_114_154)"/>
<path d="M18.3189 40.5896L17.4023 41.2568C16.4462 42.0736 15.5707 42.718 14.5998 43.5072L7.85776 48.9747H10.7754L15.0622 44.1679C15.4539 43.7253 16.5383 42.3926 16.8971 42.1517L17.0155 41.976L17.4417 41.5236C17.5405 41.4211 17.6442 41.3121 17.7429 41.2031L18.3189 40.5912V40.5896Z" fill="url(#paint3_linear_114_154)"/>
</g>
<defs>
<linearGradient id="paint0_linear_114_154" x1="37.6234" y1="36.5054" x2="37.2839" y2="0.416498" gradientUnits="userSpaceOnUse">
<stop stop-color="#F87607"/>
<stop offset="1" stop-color="#F6C229"/>
</linearGradient>
<linearGradient id="paint1_linear_114_154" x1="14.5389" y1="49.6011" x2="14.695" y2="42.7374" gradientUnits="userSpaceOnUse">
<stop stop-color="#F87607"/>
<stop offset="1" stop-color="#F6C229"/>
</linearGradient>
<linearGradient id="paint2_linear_114_154" x1="10.6734" y1="49.5149" x2="10.8295" y2="42.6512" gradientUnits="userSpaceOnUse">
<stop stop-color="#F87607"/>
<stop offset="1" stop-color="#F6C229"/>
</linearGradient>
<linearGradient id="paint3_linear_114_154" x1="12.9772" y1="49.567" x2="13.1317" y2="42.7033" gradientUnits="userSpaceOnUse">
<stop stop-color="#F87607"/>
<stop offset="1" stop-color="#F6C229"/>
</linearGradient>
<clipPath id="clip0_114_154">
<rect width="75" height="50" fill="white"/>
</clipPath>
</defs>
</svg>
