<svg width="30" height="30" viewBox="0 0 30 30" fill="none" xmlns="http://www.w3.org/2000/svg">
<circle cx="15" cy="15" r="15" fill="#E95200"/>
<g clip-path="url(#clip0_68_1011)">
<path d="M19.066 11.995C19.1377 11.9259 19.1948 11.8431 19.2342 11.7517C19.2735 11.6602 19.2943 11.5618 19.2952 11.4622C19.2961 11.3626 19.2772 11.2638 19.2395 11.1716C19.2018 11.0794 19.1462 10.9957 19.0758 10.9252C19.0054 10.8548 18.9217 10.7991 18.8295 10.7613C18.7374 10.7235 18.6386 10.7045 18.5391 10.7053C18.4395 10.7062 18.341 10.7268 18.2495 10.7661C18.158 10.8053 18.0752 10.8624 18.006 10.934L15 13.939L11.995 10.934C11.9263 10.8603 11.8435 10.8012 11.7515 10.7602C11.6595 10.7192 11.5602 10.6972 11.4595 10.6954C11.3588 10.6937 11.2588 10.7122 11.1654 10.7499C11.072 10.7876 10.9872 10.8438 10.916 10.915C10.8447 10.9862 10.7886 11.071 10.7509 11.1644C10.7132 11.2578 10.6946 11.3578 10.6964 11.4585C10.6982 11.5592 10.7202 11.6586 10.7612 11.7506C10.8022 11.8426 10.8613 11.9254 10.935 11.994L13.938 15L10.933 18.005C10.8005 18.1472 10.7284 18.3352 10.7318 18.5295C10.7353 18.7238 10.814 18.9092 10.9514 19.0466C11.0888 19.1841 11.2742 19.2628 11.4685 19.2662C11.6628 19.2696 11.8508 19.1975 11.993 19.065L15 16.06L18.005 19.066C18.1472 19.1985 18.3352 19.2706 18.5295 19.2672C18.7238 19.2638 18.9092 19.1851 19.0466 19.0476C19.184 18.9102 19.2627 18.7248 19.2662 18.5305C19.2696 18.3362 19.1975 18.1482 19.065 18.006L16.062 15L19.066 11.995Z" fill="white"/>
</g>
<defs>
<clipPath id="clip0_68_1011">
<rect width="24" height="24" fill="white" transform="translate(3 3)"/>
</clipPath>
</defs>
</svg>
