<svg width="15" height="15" viewBox="0 0 15 15" fill="none" xmlns="http://www.w3.org/2000/svg">
<path d="M7.5 2.5C8.16304 2.5 8.79893 2.76339 9.26777 3.23223C9.73661 3.70107 10 4.33696 10 5C10 5.66304 9.73661 6.29893 9.26777 6.76777C8.79893 7.23661 8.16304 7.5 7.5 7.5C6.83696 7.5 6.20107 7.23661 5.73223 6.76777C5.26339 6.29893 5 5.66304 5 5C5 4.33696 5.26339 3.70107 5.73223 3.23223C6.20107 2.76339 6.83696 2.5 7.5 2.5ZM7.5 3.75C7.16848 3.75 6.85054 3.8817 6.61612 4.11612C6.3817 4.35054 6.25 4.66848 6.25 5C6.25 5.33152 6.3817 5.64946 6.61612 5.88388C6.85054 6.1183 7.16848 6.25 7.5 6.25C7.83152 6.25 8.14946 6.1183 8.38388 5.88388C8.6183 5.64946 8.75 5.33152 8.75 5C8.75 4.66848 8.6183 4.35054 8.38388 4.11612C8.14946 3.8817 7.83152 3.75 7.5 3.75ZM7.5 8.125C9.16875 8.125 12.5 8.95625 12.5 10.625V12.5H2.5V10.625C2.5 8.95625 5.83125 8.125 7.5 8.125ZM7.5 9.3125C5.64375 9.3125 3.6875 10.225 3.6875 10.625V11.3125H11.3125V10.625C11.3125 10.225 9.35625 9.3125 7.5 9.3125Z" fill="black" fill-opacity="0.5"/>
</svg>
