<svg width="15" height="15" viewBox="0 0 15 15" fill="none" xmlns="http://www.w3.org/2000/svg">
<g clip-path="url(#clip0_18_237)">
<path fill-rule="evenodd" clip-rule="evenodd" d="M3.58314 1.27682C4.34377 0.520566 5.59627 0.654941 6.23314 1.50619L7.02189 2.55869C7.54064 3.25119 7.49439 4.21869 6.87877 4.83057L6.73002 4.97932C6.71315 5.04176 6.71144 5.10733 6.72502 5.17057C6.76439 5.42557 6.97752 5.96557 7.87002 6.85307C8.76252 7.74057 9.30627 7.95307 9.56502 7.99307C9.63022 8.00618 9.69755 8.00426 9.76189 7.98744L10.0169 7.73369C10.5644 7.18994 11.4044 7.08807 12.0819 7.45619L13.2756 8.10619C14.2988 8.66119 14.5569 10.0512 13.7194 10.8843L12.8313 11.7668C12.5513 12.0449 12.175 12.2768 11.7163 12.3199C10.585 12.4256 7.94939 12.2906 5.17877 9.53619C2.59314 6.96494 2.09689 4.72244 2.03377 3.61744C2.00252 3.05869 2.26627 2.58619 2.60252 2.25244L3.58314 1.27682ZM5.48314 2.06807C5.16627 1.64494 4.57627 1.61119 4.24377 1.94182L3.26252 2.91682C3.05627 3.12182 2.95752 3.34807 2.97002 3.56432C3.02002 4.44244 3.42002 6.46557 5.84002 8.87182C8.37877 11.3956 10.7231 11.4712 11.6294 11.3862C11.8144 11.3693 11.9981 11.2731 12.17 11.1024L13.0575 10.2193C13.4188 9.86057 13.3394 9.20682 12.8281 8.92932L11.6344 8.27994C11.3044 8.10119 10.9181 8.15994 10.6781 8.39869L10.3938 8.68182L10.0625 8.34932C10.3938 8.68182 10.3931 8.68244 10.3925 8.68244L10.3919 8.68369L10.39 8.68557L10.3856 8.68932L10.3763 8.69807C10.3499 8.72256 10.3215 8.74472 10.2913 8.76432C10.2413 8.79744 10.175 8.83432 10.0919 8.86494C9.92314 8.92807 9.69939 8.96182 9.42314 8.91932C8.88127 8.83619 8.16314 8.46682 7.20877 7.51807C6.25502 6.56932 5.88252 5.85557 5.79877 5.31432C5.75564 5.03807 5.79002 4.81432 5.85377 4.64557C5.88885 4.55061 5.93909 4.46196 6.00252 4.38307L6.02252 4.36119L6.03127 4.35182L6.03502 4.34807L6.03689 4.34619L6.03814 4.34494L6.21814 4.16619C6.48564 3.89932 6.52314 3.45744 6.27127 3.12057L5.48314 2.06807Z" fill="black" fill-opacity="0.5"/>
</g>
<defs>
<clipPath id="clip0_18_237">
<rect width="15" height="15" fill="white"/>
</clipPath>
</defs>
</svg>
